<svg width="69" height="91" viewBox="0 0 69 91" fill="none" xmlns="http://www.w3.org/2000/svg">
<path d="M34.372 16.2456L54.32 27.923L54.1808 51.0369L34.0937 62.4734L14.1462 50.7959V50.7853L21.7981 46.4695L21.7977 46.5147L34.2389 53.7981L46.7674 46.6649L46.8543 32.2488L34.4127 24.9655L21.8845 32.0982L14.2949 27.6769L34.372 16.2456Z" fill="#FFB30B"/>
<path d="M33.9969 0L0 19.9175V59.3173L30.3477 76.57C30.3864 76.7019 34.4718 90.61 34.4718 90.3873C34.4718 90.6099 38.5221 76.6674 38.5645 76.5216L68.5252 58.9829L59.937 54.1273L34.833 68.2451L8.64039 53.9897V25.1772L34.4729 10.6722L59.7321 24.4884L68.2708 19.5147L33.9969 0Z" fill="#5301A5"/>
</svg>
